<?xml version="1.0" encoding="iso-8859-1"?>
<!-- Generator: Adobe Illustrator 17.1.0, SVG Export Plug-In . SVG Version: 6.00 Build 0)  -->
<!DOCTYPE svg PUBLIC "-//W3C//DTD SVG 1.1//EN" "http://www.w3.org/Graphics/SVG/1.1/DTD/svg11.dtd">
<svg version="1.1" id="Capa_1" xmlns="http://www.w3.org/2000/svg" xmlns:xlink="http://www.w3.org/1999/xlink" x="0px" y="0px"
	 viewBox="0 0 258.333 258.333" style="enable-background:new 0 0 258.333 258.333;" xml:space="preserve">
<path d="M228.75,175.333h-91.583v-34.32l40.871,9.432c12.896,4.424,27.351-0.4,34.776-11.758c2.658-4.067,4.52-9.426,4.543-15.377
	c0.001-0.138-0.004-0.277-0.006-0.416c-0.026-2.502-0.38-5.104-1.137-7.757c-2.744-13.106-8.152-28.129-18.712-40.547
	c-24.473-28.778-63.974-34.237-68.396-34.766c-12.345-1.464-23.536,7.337-25.008,19.676c-0.616,5.167,0.069,10.13,3.069,14.266
	v40.694L51.19,125.656c-8.124,1.625-13.392,9.527-11.768,17.65c1.427,7.131,7.689,12.062,14.693,12.062
	c0.975,0,1.965-0.096,2.957-0.294l50.094-10.019v30.279H30.583c-9.159,0-17.417,7.425-17.417,16.583v17c0,8.962,8,16.244,16,16.554
	v32.363c0,0.276,1.057,0.5,1.333,0.5H47c0.276,0,0.167-0.224,0.167-0.5v-32.5h164v32.5c0,0.276,0.557,0.5,0.833,0.5h16.167
	c0,0,0-0.224,0-0.5v-32.346c10-0.135,17-7.496,17-16.571v-17C245.167,182.758,237.909,175.333,228.75,175.333z M163.222,103.743
	c3.331,3.917,5.67,8.955,7.294,14.179l-33.35-7.697V87.826C145.167,90.625,156.238,95.529,163.222,103.743z M60.167,25.292
	C60.167,11.324,71.49,0,85.458,0s25.292,11.324,25.292,25.292c0,13.968-11.323,25.292-25.292,25.292S60.167,39.26,60.167,25.292z"/>
<g>
</g>
<g>
</g>
<g>
</g>
<g>
</g>
<g>
</g>
<g>
</g>
<g>
</g>
<g>
</g>
<g>
</g>
<g>
</g>
<g>
</g>
<g>
</g>
<g>
</g>
<g>
</g>
<g>
</g>
</svg>
