<?xml version="1.0" encoding="iso-8859-1"?>
<!-- Generator: Adobe Illustrator 17.1.0, SVG Export Plug-In . SVG Version: 6.00 Build 0)  -->
<!DOCTYPE svg PUBLIC "-//W3C//DTD SVG 1.1//EN" "http://www.w3.org/Graphics/SVG/1.1/DTD/svg11.dtd">
<svg version="1.1" id="Capa_1" xmlns="http://www.w3.org/2000/svg" xmlns:xlink="http://www.w3.org/1999/xlink" x="0px" y="0px"
	 viewBox="0 0 278.497 278.497" style="enable-background:new 0 0 278.497 278.497;" xml:space="preserve">
<path d="M12.444,215.388c0.167-0.146,17.098-14.64,51.521-14.64c15.123,0,27.152,6.114,41.081,13.194
	c18.265,9.283,38.967,19.806,71.848,19.806c58.612,0,97.427-33.437,99.051-34.86c3.11-2.728,3.421-7.454,0.699-10.569
	c-2.724-3.116-7.457-3.435-10.578-0.719c-0.185,0.161-9.912,8.469-26.534,16.464c-1.009-2.469-2.673-4.705-4.979-6.401
	l-27.268-20.05c-0.848-0.623-1.719-1.213-2.601-1.787l39.044-50.935c0.101-0.132,0.183-0.271,0.279-0.405
	c4.274-1.873,7.617-5.701,8.663-10.614c1.726-8.103-3.444-16.069-11.547-17.795l-108-23c-0.069-0.015-0.138-0.02-0.208-0.033
	c-6.184-1.505-12.973-0.181-18.232,4.213c-3.533,2.951-34.518,29.812-34.518,63.686c0,18.781,6.741,38.016,12.191,50.503
	c-8.657-3.387-17.795-5.698-28.394-5.698c-40.006,0-60.554,17.61-61.409,18.36c-3.114,2.73-3.426,7.469-0.695,10.584
	C4.591,217.807,9.328,218.119,12.444,215.388z M152.782,216.414c-7.015-1.426-13.326-3.416-19.213-5.716
	c0.56-0.225,1.115-0.474,1.657-0.772l18.329-10.075c4.532-2.49,9.748-3.803,14.999-4.013L152.782,216.414z M189.514,201.784
	l18.269,13.433c-9.443,2.157-19.79,3.531-30.889,3.531c-1.718,0-3.394-0.035-5.037-0.096l14.465-18.87
	C187.431,200.387,188.506,201.043,189.514,201.784z M139.104,173.561l-7.418,4.078c-4.295-9.371-9.996-24.541-9.996-36.696
	c0.977-20.195,20.477-33.945,22.552-34.826l80.024,17.042l-34.927,45.563C172.951,163.742,154.247,165.236,139.104,173.561z
	 M276.644,221.319c2.722,3.115,2.411,7.842-0.699,10.569c-1.624,1.424-40.438,34.86-99.051,34.86
	c-32.881,0-53.583-10.522-71.848-19.806c-13.929-7.08-25.958-13.194-41.081-13.194c-34.423,0-51.354,14.493-51.521,14.64
	c-3.116,2.73-7.854,2.42-10.584-0.695s-2.419-7.854,0.695-10.584c0.855-0.75,21.403-18.36,61.409-18.36
	c18.717,0,32.882,7.2,47.878,14.822c17.582,8.937,35.763,18.178,65.051,18.178c52.777,0,88.814-30.837,89.172-31.148
	C269.187,217.884,273.92,218.203,276.644,221.319z M132,40.415c0-15.832,12.835-28.667,28.667-28.667s28.667,12.834,28.667,28.667
	s-12.834,28.667-28.667,28.667S132,56.247,132,40.415z"/>
<g>
</g>
<g>
</g>
<g>
</g>
<g>
</g>
<g>
</g>
<g>
</g>
<g>
</g>
<g>
</g>
<g>
</g>
<g>
</g>
<g>
</g>
<g>
</g>
<g>
</g>
<g>
</g>
<g>
</g>
</svg>
