<?xml version="1.0" encoding="iso-8859-1"?>
<!-- Generator: Adobe Illustrator 17.1.0, SVG Export Plug-In . SVG Version: 6.00 Build 0)  -->
<!DOCTYPE svg PUBLIC "-//W3C//DTD SVG 1.1//EN" "http://www.w3.org/Graphics/SVG/1.1/DTD/svg11.dtd">
<svg version="1.1" id="Capa_1" xmlns="http://www.w3.org/2000/svg" xmlns:xlink="http://www.w3.org/1999/xlink" x="0px" y="0px"
	 viewBox="0 0 262.501 262.501" style="enable-background:new 0 0 262.501 262.501;" xml:space="preserve">
<g>
	<path d="M255.23,91.259c-29.362,17.947-62.932,27.385-97.289,27.385c-0.902,0-1.804-0.011-2.706-0.024
		c-1.086,2.539-39.318,41.863-39.318,41.863c17.43,23.809,25.86,53.106,24.363,84.82c-0.019,0.405-0.065,0.802-0.116,1.197h105.932
		c4.374,0,8.167,3.546,8.167,7.92v0.16c0,4.374-3.793,7.92-8.167,7.92H23.016c-4.374,0-7.753-3.546-7.753-7.92v-0.16
		c0-4.374,3.379-7.92,7.753-7.92h87.414c-0.109-0.854-0.16-1.724-0.118-2.613c1.19-25.195-5.481-48.235-19.295-66.63l-3.569-4.772
		c-0.07-0.094-0.139-0.188-0.207-0.283l-9.828-13.801c-0.98-1.376-2.045-2.72-3.16-3.988l-1.111-1.266
		c-16.267-18.507-37.481-31.517-61.35-37.623l-0.398-0.102C3.366,113.378-1.485,105.212,0.56,97.185
		c2.045-8.028,10.208-12.881,18.238-10.834l0.414,0.105c26.022,6.658,49.501,19.89,68.539,38.526c0,0,34.109-33.885,35.934-34.895
		c-2.781-24.759-15.427-47.725-35.323-63.264c-6.528-5.099-7.688-14.525-2.588-21.055c5.099-6.529,14.523-7.688,21.055-2.588
		c26.775,20.912,43.601,52.008,46.848,85.413l1.441,0.026c29.81,0.526,59.02-7.404,84.465-22.958
		c7.071-4.319,16.302-2.091,20.622,4.976C264.526,77.705,262.298,86.938,255.23,91.259z M80.78,190.428
		c3.46-14.823-5.751-29.645-20.575-33.105c-14.823-3.46-29.645,5.752-33.105,20.575c-3.46,14.823,5.752,29.645,20.575,33.105
		C62.498,214.463,77.319,205.251,80.78,190.428z"/>
</g>
<g>
</g>
<g>
</g>
<g>
</g>
<g>
</g>
<g>
</g>
<g>
</g>
<g>
</g>
<g>
</g>
<g>
</g>
<g>
</g>
<g>
</g>
<g>
</g>
<g>
</g>
<g>
</g>
<g>
</g>
</svg>
