<?xml version="1.0" encoding="utf-8"?>
<!-- Generator: Adobe Illustrator 27.7.0, SVG Export Plug-In . SVG Version: 6.00 Build 0)  -->
<svg version="1.1" id="Capa_1" xmlns="http://www.w3.org/2000/svg" xmlns:xlink="http://www.w3.org/1999/xlink" x="0px" y="0px"
	 viewBox="0 0 282.3 282.3" style="enable-background:new 0 0 282.3 282.3;" xml:space="preserve">
<path d="M232.4,0.8c-7.8-2.7-16.4,1.6-19,9.4l-0.1,0.3c-6.9,20.5-18.7,39.5-33.8,55l-0.1,0.1l-28.3-0.1c-15.8,0-31.5-2.6-46.5-7.7
	c-7.8-2.7-16.4,1.5-19,9.4c-2.7,7.8,1.5,16.4,9.4,19c18.1,6.1,36.9,9.3,56,9.3l14.2,0l2.5,29.3c-16.9-6.3-35.6-6.1-52.5,0.7
	l-35.9,14.4c-3.6,1.4-6.3,4.1-7.9,7.4L45,116.4c-6.4,5.5-7.1,15.1-1.7,21.5L162.5,277c5.5,6.4,15.1,7.1,21.5,1.7l-33.8-39.5
	c3.6-1.7,6.5-4.8,7.8-8.8l12.2-36.7c3.9-11.8,12.8-21.3,24.3-26l1.7-0.7c11.2-2.1,19.3-12.4,18.3-24l-4.9-57.6
	c-0.2-2.3-0.7-4.4-1.5-6.4c14.9-17.1,26.5-37.2,33.7-58.7l0.1-0.4C244.5,12,240.3,3.4,232.4,0.8z M141.7,184.1l-10.8,32.5
	l-41.5-48.5c0.4-0.1,0.8-0.3,1.2-0.4l35.9-14.4c11.1-4.4,23.4-4,34.1,1C152,162.5,145.5,172.7,141.7,184.1z M143.2,26.4
	c4-11.7,16.6-17.9,28.3-14s17.9,16.6,14,28.3c-4,11.7-16.6,17.9-28.3,14S139.2,38.1,143.2,26.4z"/>
<circle cx="55.8" cy="162" r="7.4"/>
<circle cx="144.2" cy="264.2" r="7.4"/>
</svg>
