<?xml version="1.0" encoding="iso-8859-1"?>
<!-- Generator: Adobe Illustrator 17.1.0, SVG Export Plug-In . SVG Version: 6.00 Build 0)  -->
<!DOCTYPE svg PUBLIC "-//W3C//DTD SVG 1.1//EN" "http://www.w3.org/Graphics/SVG/1.1/DTD/svg11.dtd">
<svg version="1.1" id="Capa_1" xmlns="http://www.w3.org/2000/svg" xmlns:xlink="http://www.w3.org/1999/xlink" x="0px" y="0px"
	 viewBox="0 0 264 264" style="enable-background:new 0 0 264 264;" xml:space="preserve">
<path d="M64.458,20.36C67.725,8.618,79.891,1.747,91.633,5.013c11.742,3.266,18.613,15.432,15.347,27.174S91.547,50.8,79.805,47.534
	C68.064,44.268,61.192,32.102,64.458,20.36z M248.108,49.822l-94.163-26.191c0.089-1.522,0.129-3.052,0.115-4.587l-0.041-4.394
	C153.946,6.412,147.246,0,139.023,0c-0.045,0-0.092,0-0.137,0c-8.283,0-14.939,6.633-14.865,14.917l0.041,4.501
	c0.12,13.668-7.022,26.566-18.64,33.747c-1.484,0.918-3.247,1.739-5.236,2.494l-13.565,5.13c-3.538,1.342-6.962,2.053-10.176,2.125
	c-4.264,0.092-17.236,0.381-29.523-21.376l-5.103-9.035c-4.072-7.213-13.226-9.759-20.437-5.685
	c-7.214,4.073-9.759,13.223-5.685,20.436l2.041,3.613L9.878,151.299c-0.377,4.822,3.226,9.037,8.047,9.414l0,0
	c4.822,0.377,9.036-3.225,9.414-8.047l6.17-78.826c12.936,13.749,27.025,18.214,38.624,18.953l4.364,46.213
	c1.101,11.652,10.9,20.387,22.374,20.387c0.708,0,1.423-0.034,2.142-0.102c4.186-0.395,7.993-1.916,11.156-4.231
	c5.503-1.743,11.461-1.586,16.961,0.546c7.183,2.786,12.678,8.582,15.077,15.903l4.239,12.934c0.757,2.309,2.025,4.306,3.632,5.915
	L96.961,249.43c-3.108,3.332-2.928,8.552,0.404,11.66l0.742,0.692c3.331,3.108,8.552,2.927,11.66-0.404l138.447-148.381
	c6.217-6.663,5.855-17.104-0.808-23.321l-0.742-0.692l-72.476,77.676l-1.474-4.496c-5.209-15.895-17.142-28.48-32.737-34.529
	c-6.385-2.476-13.056-3.708-19.709-3.76l-3.915-41.457c-0.034-0.356-0.078-0.709-0.127-1.06c1.733-0.843,3.381-1.748,4.968-2.728
	c14.11-8.721,24.475-22.268,29.491-37.729l92.73,25.793c4.39,1.221,8.938-1.348,10.159-5.737l0.272-0.978
	C255.067,55.592,252.498,51.043,248.108,49.822z"/>
<g>
</g>
<g>
</g>
<g>
</g>
<g>
</g>
<g>
</g>
<g>
</g>
<g>
</g>
<g>
</g>
<g>
</g>
<g>
</g>
<g>
</g>
<g>
</g>
<g>
</g>
<g>
</g>
<g>
</g>
</svg>
