<?xml version="1.0" encoding="iso-8859-1"?>
<!-- Generator: Adobe Illustrator 17.1.0, SVG Export Plug-In . SVG Version: 6.00 Build 0)  -->
<!DOCTYPE svg PUBLIC "-//W3C//DTD SVG 1.1//EN" "http://www.w3.org/Graphics/SVG/1.1/DTD/svg11.dtd">
<svg version="1.1" id="Capa_1" xmlns="http://www.w3.org/2000/svg" xmlns:xlink="http://www.w3.org/1999/xlink" x="0px" y="0px"
	 viewBox="0 0 282.305 282.305" style="enable-background:new 0 0 282.305 282.305;" xml:space="preserve">
<path d="M232.425,0.796c-7.849-2.658-16.36,1.559-19.013,9.407l-0.115,0.34c-6.949,20.514-18.653,39.519-33.844,54.958l-0.072,0.073
	l-28.325-0.071c-15.846-0.04-31.49-2.638-46.499-7.723c-7.845-2.654-16.362,1.547-19.02,9.395
	c-2.658,7.846,1.548,16.361,9.395,19.02c18.091,6.129,36.948,9.261,56.048,9.309l14.224,0.036l2.51,29.307
	c-16.868-6.286-35.554-6.139-52.465,0.65l-35.914,14.419c-3.595,1.443-6.308,4.128-7.88,7.356l-26.448-30.873
	c-6.396,5.479-7.139,15.105-1.66,21.5l119.146,139.078c5.479,6.396,15.105,7.138,21.5,1.66l-33.841-39.503
	c3.58-1.691,6.493-4.779,7.838-8.833l12.184-36.733c3.918-11.811,12.762-21.305,24.265-26.048l1.715-0.707
	c11.23-2.097,19.258-12.41,18.262-24.033l-4.93-57.56c-0.193-2.255-0.716-4.403-1.511-6.403
	c14.887-17.11,26.468-37.194,33.74-58.659l0.118-0.35C244.486,11.961,240.274,3.448,232.425,0.796z M141.699,184.123l-10.794,32.543
	l-41.549-48.5c0.388-0.12,0.774-0.257,1.157-0.411l35.914-14.42c11.062-4.441,23.415-4.045,34.148,1.023
	C152.037,162.489,145.501,172.661,141.699,184.123z M143.185,26.406c3.956-11.677,16.629-17.936,28.306-13.98
	c11.677,3.956,17.936,16.629,13.98,28.306c-3.956,11.677-16.629,17.936-28.306,13.98S139.229,38.083,143.185,26.406z"/>
<g>
</g>
<g>
</g>
<g>
</g>
<g>
</g>
<g>
</g>
<g>
</g>
<g>
</g>
<g>
</g>
<g>
</g>
<g>
</g>
<g>
</g>
<g>
</g>
<g>
</g>
<g>
</g>
<g>
</g>
</svg>
