<?xml version="1.0" encoding="iso-8859-1"?>
<!-- Generator: Adobe Illustrator 17.1.0, SVG Export Plug-In . SVG Version: 6.00 Build 0)  -->
<!DOCTYPE svg PUBLIC "-//W3C//DTD SVG 1.1//EN" "http://www.w3.org/Graphics/SVG/1.1/DTD/svg11.dtd">
<svg version="1.1" id="Capa_1" xmlns="http://www.w3.org/2000/svg" xmlns:xlink="http://www.w3.org/1999/xlink" x="0px" y="0px"
	 viewBox="0 0 288.5 288.5" style="enable-background:new 0 0 288.5 288.5;" xml:space="preserve">
<g>
	<path d="M6.862,236.444c-2.73-3.115-2.419-7.854,0.695-10.584c0.855-0.75,21.403-18.36,61.409-18.36
		c18.717,0,32.882,7.2,47.878,14.822c17.582,8.937,35.763,18.178,65.051,18.178c52.777,0,88.814-30.837,89.172-31.148
		c3.121-2.716,7.854-2.397,10.578,0.719c2.722,3.115,2.411,7.842-0.699,10.569c-1.624,1.424-40.438,34.86-99.051,34.86
		c-32.881,0-53.583-10.522-71.848-19.806c-13.929-7.08-25.958-13.194-41.081-13.194c-34.423,0-51.354,14.493-51.521,14.64
		C14.329,239.871,9.592,239.56,6.862,236.444z M271.067,242.352c-0.357,0.312-36.395,31.148-89.172,31.148
		c-29.288,0-47.469-9.241-65.051-18.178C101.848,247.7,87.683,240.5,68.966,240.5c-40.006,0-60.554,17.61-61.409,18.36
		c-3.114,2.73-3.426,7.469-0.695,10.584s7.468,3.427,10.584,0.695c0.167-0.146,17.098-14.64,51.521-14.64
		c15.123,0,27.152,6.114,41.081,13.194c18.265,9.283,38.967,19.806,71.848,19.806c58.612,0,97.427-33.437,99.051-34.86
		c3.11-2.728,3.421-7.454,0.699-10.569C278.921,239.954,274.188,239.636,271.067,242.352z M89.835,133.25
		c0-10.207,6.833-18.968,14.833-22.753V49.5c0-6.135,2.625-11.693,6.606-15.752c1.231-8.295,5.13-15.957,11.152-22.025
		C129.928,4.163,140.145,0,150.794,0c21.866,0,39.874,17.789,39.874,39.655v31.444l17.617,17.794
		c5.858,5.857,5.77,15.355-0.089,21.213c-2.929,2.929-6.634,4.394-10.473,4.394c-2.479,0-5.055-0.62-7.055-1.842v61.341
		c0,8.284-6.716,15-15,15s-15-6.716-15-15V94.178l-11,4.537V115.5c0,8.028-4.041,15.069-10.368,19.051
		C138.624,147.615,127.817,158,114.585,158C100.916,158,89.835,146.919,89.835,133.25z M143.804,32.854
		c-0.19,0.191-0.532,0.393-0.704,0.597c4.155,4.082,6.569,9.763,6.569,16.049v16.439l11-4.537V39.655
		c0-5.324-4.509-9.655-9.833-9.655C148.243,30,145.631,31.014,143.804,32.854z"/>
</g>
<g>
</g>
<g>
</g>
<g>
</g>
<g>
</g>
<g>
</g>
<g>
</g>
<g>
</g>
<g>
</g>
<g>
</g>
<g>
</g>
<g>
</g>
<g>
</g>
<g>
</g>
<g>
</g>
<g>
</g>
</svg>
