<?xml version="1.0" encoding="iso-8859-1"?>
<!-- Generator: Adobe Illustrator 17.1.0, SVG Export Plug-In . SVG Version: 6.00 Build 0)  -->
<!DOCTYPE svg PUBLIC "-//W3C//DTD SVG 1.1//EN" "http://www.w3.org/Graphics/SVG/1.1/DTD/svg11.dtd">
<svg version="1.1" id="Capa_1" xmlns="http://www.w3.org/2000/svg" xmlns:xlink="http://www.w3.org/1999/xlink" x="0px" y="0px"
	 viewBox="0 0 272.016 272.016" style="enable-background:new 0 0 272.016 272.016;" xml:space="preserve">
<path d="M192.349,137.758c2.947,3.93,7.451,6.001,12.012,6.001c3.132,0,6.29-0.978,8.988-3.001c6.627-4.971,7.971-14.373,3-21
	l-49.248-65.664c-0.076-0.119-0.136-0.243-0.215-0.36c-2.688-4.033-6.46-6.901-10.667-8.51l-0.165-0.207
	C134.293,34.134,109.93,28.258,85.6,28.258H69.749c-8.284,0-15,6.716-15,15s6.716,15,15,15H85.6c9.623,0,19.251,1.244,28.638,3.408
	l-24.37,16.309c-10.34,6.893-13.134,20.894-6.24,31.232c1.617,2.427,3.625,4.452,5.884,6.02c-0.117,0.308-0.223,0.627-0.361,0.93
	c-1.861,4.068-5.417,7.036-9.753,8.137l-29.239,7.424c-5.178,1.314-9.023,5.182-10.564,9.913l-37.3-22.024
	c-4.633,7.847-2.029,17.964,5.818,22.598l170.639,100.76c7.847,4.634,17.964,2.029,22.597-5.818L147.758,205.5
	c1.277-1.494,2.281-3.265,2.905-5.26c10.458-33.396,2.911-69.318-19.62-95.57l24.327-16.218L192.349,137.758z M122.268,190.449
	l-54.579-32.228l19.089-4.845c11.765-2.986,21.638-10.485,27.648-20.854C125.196,149.586,128.219,170.614,122.268,190.449z
	 M162.849,28.008c0-13.669,11.081-24.75,24.75-24.75s24.75,11.081,24.75,24.75s-11.081,24.75-24.75,24.75
	S162.849,41.677,162.849,28.008z M272.016,129.258v49v66v17c0,4.143-3.357,7.5-7.5,7.5s-7.5-3.357-7.5-7.5v-12.986l-45.994-30.774
	c-2.087-1.391-3.257-3.732-3.257-6.24s1.128-4.85,3.215-6.24l46.035-30.774v-44.986c0-4.143,3.357-7.5,7.5-7.5
	S272.016,125.115,272.016,129.258z"/>
<g>
</g>
<g>
</g>
<g>
</g>
<g>
</g>
<g>
</g>
<g>
</g>
<g>
</g>
<g>
</g>
<g>
</g>
<g>
</g>
<g>
</g>
<g>
</g>
<g>
</g>
<g>
</g>
<g>
</g>
</svg>
