<?xml version="1.0" encoding="iso-8859-1"?>
<!-- Generator: Adobe Illustrator 17.1.0, SVG Export Plug-In . SVG Version: 6.00 Build 0)  -->
<!DOCTYPE svg PUBLIC "-//W3C//DTD SVG 1.1//EN" "http://www.w3.org/Graphics/SVG/1.1/DTD/svg11.dtd">
<svg version="1.1" id="Capa_1" xmlns="http://www.w3.org/2000/svg" xmlns:xlink="http://www.w3.org/1999/xlink" x="0px" y="0px"
	 viewBox="0 0 307.335 307.335" style="enable-background:new 0 0 307.335 307.335;" xml:space="preserve">
<g>
	<path d="M256.969,90.383c3.975,5.622,3.671,13.437-1.155,18.741c-18.883,20.755-44.058,34.905-71.488,40.33l-9.388,52.406
		c-0.076,0.424-0.183,0.833-0.282,1.247c28.031,29.574,45.019,57.728,51.77,85.705c1.942,8.054-3.011,16.157-11.063,18.1
		c-1.183,0.286-2.366,0.423-3.531,0.423c-6.769,0-12.911-4.614-14.568-11.485c-5.593-23.176-21.316-48.232-46.781-74.6
		c-18.656,13.157-37.667,21.64-61.133,21.64c-10.391,0-21.65-1.661-34.146-5.314c-7.951-2.325-12.512-10.656-10.188-18.607
		c2.325-7.952,10.659-12.509,18.607-10.188c25.799,7.545,43.885,5.127,66.682-10.084c-0.055-1.568,0.051-3.164,0.339-4.771
		l8.705-48.597c-21.303-6.785-40.816-18.248-57.297-33.789c-6.027-5.684-6.306-15.177-0.622-21.204
		c5.684-6.026,15.176-6.306,21.204-0.622c17.663,16.656,39.675,27.464,63.656,31.255l3.155,0.5l3.742-0.532
		c23.201-3.301,44.666-14.665,60.438-32.001c2.609-2.867,6.076-4.474,9.654-4.818c3.02-8.782,8.046-30.065,1.322-42.636
		c-2.788-5.214-7.394-8.506-14.078-10.063c-16.031-3.739-23.107,2.845-32.905,11.953c-5.348,4.971-11.413,10.6-19.536,14.699
		c2.61,0.665,5.165,1.733,7.574,3.23c12.633,7.851,16.509,24.457,8.658,37.089c-7.851,12.633-24.457,16.509-37.089,8.658
		c-12.633-7.851-16.509-24.457-8.658-37.089c1.46-2.349,3.223-4.394,5.207-6.118c-0.394,0.007-0.784,0.018-1.184,0.018
		c-56.167,0-86.319-50.422-87.575-52.568c-2.093-3.575-0.891-8.169,2.685-10.261c3.573-2.092,8.169-0.892,10.261,2.685
		c0.26,0.44,27.188,45.145,74.63,45.145c17.093,0,25.701-8.002,34.815-16.474c10.651-9.901,22.724-21.12,46.522-15.576
		c11,2.563,19.048,8.498,23.922,17.637C269.069,55.485,258.397,86.466,256.969,90.383z"/>
</g>
<g>
</g>
<g>
</g>
<g>
</g>
<g>
</g>
<g>
</g>
<g>
</g>
<g>
</g>
<g>
</g>
<g>
</g>
<g>
</g>
<g>
</g>
<g>
</g>
<g>
</g>
<g>
</g>
<g>
</g>
</svg>
