<?xml version="1.0" encoding="iso-8859-1"?>
<!-- Generator: Adobe Illustrator 17.1.0, SVG Export Plug-In . SVG Version: 6.00 Build 0)  -->
<!DOCTYPE svg PUBLIC "-//W3C//DTD SVG 1.1//EN" "http://www.w3.org/Graphics/SVG/1.1/DTD/svg11.dtd">
<svg version="1.1" id="Capa_1" xmlns="http://www.w3.org/2000/svg" xmlns:xlink="http://www.w3.org/1999/xlink" x="0px" y="0px"
	 viewBox="0 0 294.669 294.669" style="enable-background:new 0 0 294.669 294.669;" xml:space="preserve">
<path d="M177.598,189.462c5.769,12.295,5.651,26.342-0.323,38.539l-7.803,15.93c-2.604,5.316-7.936,8.405-13.481,8.405
	c-2.216,0-4.464-0.492-6.587-1.532c-7.44-3.644-10.518-12.629-6.873-20.068l7.803-15.931c1.953-3.988,1.991-8.58,0.105-12.599
	c-1.886-4.02-5.442-6.925-9.758-7.971l-24.411-5.917l-92.992,61.525c-2.547,1.686-5.421,2.492-8.263,2.492
	c-4.865,0-9.638-2.363-12.523-6.726c-4.571-6.908-2.676-16.215,4.233-20.786l90.78-60.062c0.018-5.78,2.247-11.552,6.684-15.936
	l44.667-44.125c8.478-8.375,21.914-8.616,30.705-0.825l80.158,48.095c7.104,4.262,9.407,13.476,5.145,20.58
	c-2.813,4.688-7.781,7.284-12.877,7.284c-2.626,0-5.286-0.689-7.703-2.14l-65.502-39.302l-27.914,27.575
	C162.652,169.737,172.291,178.151,177.598,189.462z M184.252,91.833c13.669,0,24.75-11.081,24.75-24.75s-11.081-24.75-24.75-24.75
	s-24.75,11.081-24.75,24.75S170.583,91.833,184.252,91.833z M294.669,230.833c0-9.113-7.387-16.5-16.5-16.5h-34
	c-9.113,0-16.5,7.387-16.5,16.5l0,0c0,9.113,7.387,16.5,16.5,16.5h34C287.281,247.333,294.669,239.946,294.669,230.833
	L294.669,230.833z"/>
<g>
</g>
<g>
</g>
<g>
</g>
<g>
</g>
<g>
</g>
<g>
</g>
<g>
</g>
<g>
</g>
<g>
</g>
<g>
</g>
<g>
</g>
<g>
</g>
<g>
</g>
<g>
</g>
<g>
</g>
</svg>
