<?xml version="1.0" encoding="iso-8859-1"?>
<!-- Generator: Adobe Illustrator 17.1.0, SVG Export Plug-In . SVG Version: 6.00 Build 0)  -->
<!DOCTYPE svg PUBLIC "-//W3C//DTD SVG 1.1//EN" "http://www.w3.org/Graphics/SVG/1.1/DTD/svg11.dtd">
<svg version="1.1" id="Capa_1" xmlns="http://www.w3.org/2000/svg" xmlns:xlink="http://www.w3.org/1999/xlink" x="0px" y="0px"
	 viewBox="0 0 258.011 258.011" style="enable-background:new 0 0 258.011 258.011;" xml:space="preserve">
<path d="M257.179,215.567c-0.64,4.487-3.272,8.444-7.164,10.767c-2.353,1.403-5.013,2.119-7.688,2.119
	c-1.751,0-3.508-0.307-5.189-0.927L9.814,143.682c-7.772-2.866-11.75-11.491-8.883-19.264s11.49-11.749,19.264-8.883l206.42,76.134
	c-4.049-17.391-16.619-32.268-34.107-38.622L9.99,88.309C2.182,85.541-1.902,76.966,0.867,69.158
	c2.769-7.808,11.344-11.892,19.151-9.122l182.576,64.759c0.032,0.011,0.064,0.022,0.098,0.035
	c18.063,6.548,33.458,19.226,43.349,35.697S259.887,196.546,257.179,215.567z M37.399,56.94c1.426,0,2.865-0.131,4.278-0.389
	c12.885-2.35,21.457-14.743,19.108-27.629c-2.06-11.297-11.88-19.497-23.351-19.497c-1.427,0-2.865,0.131-4.277,0.388
	C20.272,12.162,11.7,24.555,14.047,37.442C16.107,48.74,25.927,56.94,37.399,56.94z M97.145,77.092c1.427,0,2.865-0.131,4.278-0.389
	c12.885-2.35,21.457-14.743,19.109-27.628c-2.06-11.298-11.88-19.498-23.352-19.498c-1.427,0-2.865,0.131-4.277,0.388
	c-12.886,2.349-21.458,14.742-19.11,27.629C75.853,68.891,85.673,77.092,97.145,77.092z M156.891,97.243
	c1.427,0,2.865-0.131,4.277-0.388c6.242-1.138,11.667-4.639,15.276-9.857c3.609-5.218,4.971-11.529,3.834-17.771
	c-2.06-11.298-11.88-19.498-23.352-19.498c-1.427,0-2.865,0.131-4.277,0.388c-6.242,1.138-11.667,4.639-15.276,9.857
	c-3.609,5.218-4.971,11.529-3.833,17.772C135.6,89.043,145.42,97.243,156.891,97.243z M216.637,117.394
	c1.427,0,2.865-0.131,4.277-0.388c6.242-1.138,11.667-4.639,15.276-9.857c3.609-5.218,4.971-11.529,3.834-17.771
	c-2.06-11.298-11.88-19.498-23.352-19.498c-1.426,0-2.865,0.131-4.278,0.389c-12.885,2.35-21.457,14.743-19.108,27.629
	C195.346,109.194,205.166,117.394,216.637,117.394z M156.96,216.283c-1.623,4.258,0.513,9.024,4.771,10.647l53.963,20.568
	c8.515,3.246,18.049-1.026,21.295-9.541l-69.381-26.445C163.35,209.89,158.583,212.026,156.96,216.283z M2.43,160.589L2.43,160.589
	c-1.623,4.258,0.513,9.024,4.771,10.647l53.963,20.568c8.515,3.246,18.049-1.026,21.295-9.542l-69.381-26.445
	C8.82,154.195,4.053,156.331,2.43,160.589z"/>
<g>
</g>
<g>
</g>
<g>
</g>
<g>
</g>
<g>
</g>
<g>
</g>
<g>
</g>
<g>
</g>
<g>
</g>
<g>
</g>
<g>
</g>
<g>
</g>
<g>
</g>
<g>
</g>
<g>
</g>
</svg>
