<svg width="22" height="30" viewBox="0 0 22 30" fill="none" xmlns="http://www.w3.org/2000/svg">
<path d="M10.8649 0C4.87395 0 0 4.87394 0 10.8648C0 18.2996 9.72299 29.2144 10.137 29.6754C10.5258 30.1085 11.2046 30.1078 11.5928 29.6754C12.0067 29.2144 21.7297 18.2996 21.7297 10.8648C21.7296 4.87394 16.8557 0 10.8649 0ZM10.8649 16.3312C7.85068 16.3312 5.39853 13.879 5.39853 10.8648C5.39853 7.85062 7.85074 5.39848 10.8649 5.39848C13.879 5.39848 16.3311 7.85068 16.3311 10.8649C16.3311 13.879 13.879 16.3312 10.8649 16.3312Z" fill="#FB2942"/>
</svg>
