<?xml version="1.0" encoding="iso-8859-1"?>
<!-- Generator: Adobe Illustrator 17.1.0, SVG Export Plug-In . SVG Version: 6.00 Build 0)  -->
<!DOCTYPE svg PUBLIC "-//W3C//DTD SVG 1.1//EN" "http://www.w3.org/Graphics/SVG/1.1/DTD/svg11.dtd">
<svg version="1.1" id="Capa_1" xmlns="http://www.w3.org/2000/svg" xmlns:xlink="http://www.w3.org/1999/xlink" x="0px" y="0px"
	 viewBox="0 0 268.442 268.442" style="enable-background:new 0 0 268.442 268.442;" xml:space="preserve">
<g>
	<path d="M267.397,149.304L267.397,149.304c-2.209,3.945-7.197,5.433-11.142,3.224l-8.939-4.924h-13.313
		c-26.799,0-50.562-16.232-60.188-40.981l-0.239-1.019h-38.754c2.706,4,4.2,9.82,4.203,15.417
		c0.006,10.507-5.202,20.146-13.932,25.992L98.87,164.514l125.934,70.475l-0.6,1.056c-4.195,7.492-13.668,10.157-21.16,5.963
		L3.977,130.554c-3.746-2.097-5.083-6.836-2.985-10.582l0.6-1.073c2.097-3.746,6.834-5.083,10.58-2.986l60.452,33.845
		c1.007-3.07,2.997-5.843,5.889-7.78l29.885-20.016c0.172-0.115,0.628-0.42,0.627-1.175c0-0.755-0.456-1.06-0.628-1.175
		l-23.523-15.72c-8.852-3.027-15.219-11.411-15.219-21.289c0-12.157,9.642-22.056,21.696-22.48L70.808,48.623
		c-3.656-2.047-4.961-6.67-2.914-10.326l0.586-1.046c2.047-3.656,6.67-4.711,10.326-2.664l46.024,26.017h48.344
		c9.451,0,17.967,5.223,20.925,12.085c0.68,1.254,1.428,4.098,1.898,5.523l5.14,15.522c1.82,5.52,4.935,10.373,8.928,14.2
		c0,0,10.857,9.669,23.938,9.669h13.461c8.284,0,15,6.636,15,14.92c0,1.515-0.229,2.936-0.647,4.314l2.436,1.344
		C268.198,140.391,269.606,145.359,267.397,149.304z M222.513,77.859c14.749,0,26.706-11.957,26.706-26.706
		s-11.957-26.706-26.706-26.706c-14.749,0-26.706,11.957-26.706,26.706S207.764,77.859,222.513,77.859z"/>
</g>
<g>
</g>
<g>
</g>
<g>
</g>
<g>
</g>
<g>
</g>
<g>
</g>
<g>
</g>
<g>
</g>
<g>
</g>
<g>
</g>
<g>
</g>
<g>
</g>
<g>
</g>
<g>
</g>
<g>
</g>
</svg>
