<?xml version="1.0" encoding="iso-8859-1"?>
<!-- Generator: Adobe Illustrator 17.1.0, SVG Export Plug-In . SVG Version: 6.00 Build 0)  -->
<!DOCTYPE svg PUBLIC "-//W3C//DTD SVG 1.1//EN" "http://www.w3.org/Graphics/SVG/1.1/DTD/svg11.dtd">
<svg version="1.1" id="Capa_1" xmlns="http://www.w3.org/2000/svg" xmlns:xlink="http://www.w3.org/1999/xlink" x="0px" y="0px"
	 viewBox="0 0 273.855 273.855" style="enable-background:new 0 0 273.855 273.855;" xml:space="preserve">
<g>
	<path d="M273.855,89.562v1.098c0,4.556-3.86,8.124-8.417,8.124h-62.583v7.874c0,4.556-3.251,8.126-7.808,8.126h-1.098
		c-4.556,0-8.095-3.57-8.095-8.126v-0.9c0,0.006-0.494,0.026-0.667,0.026h-72.642c0.091,0.821,0.142,1.655,0.142,2.5
		c0,0-0.011,49.487-0.019,49.731c24.152,20.645,40.938,48.425,47.962,79.931l0.115,0.515c1.803,8.086-3.289,16.103-11.375,17.906
		c-1.1,0.245-2.198,0.362-3.279,0.362c-6.872,0-13.068-4.751-14.627-11.737l-0.115-0.517c-5.62-25.213-19.085-47.43-38.462-63.901
		c-16.348,25.518-36.664,47.988-60.462,66.856l-7.73,6.128c-2.756,2.186-6.044,3.247-9.309,3.247c-4.423,0-8.803-1.947-11.764-5.683
		c-5.146-6.491-4.057-15.926,2.436-21.072l7.729-6.128c21.594-17.121,39.124-37.579,53.821-60.839
		c0.152-2.305,0.078-54.8,0.078-54.8c0-1.058,0.078-2.097,0.22-3.117c-30.194-4.686-55.89-25.285-66.727-54.899l-0.264-0.722
		c-2.847-7.779,1.153-16.394,8.934-19.24c7.777-2.844,16.393,1.152,19.24,8.934l0.264,0.721
		c8.316,22.727,30.131,37.264,54.324,36.162l7.118-0.323c0.227-0.011,0.454-0.016,0.681-0.016h93.71c0.173,0,0.667,0.02,0.667,0.026
		v-3.845c0-4.556,3.538-8.181,8.095-8.181h1.098c4.556,0,7.808,3.624,7.808,8.181v9.819h62.583
		C269.995,81.784,273.855,85.006,273.855,89.562z M90.643,67.873c14.035,0,25.412-11.377,25.412-25.412
		s-11.377-25.412-25.412-25.412c-14.034,0-25.412,11.377-25.412,25.412S76.609,67.873,90.643,67.873z"/>
</g>
<g>
</g>
<g>
</g>
<g>
</g>
<g>
</g>
<g>
</g>
<g>
</g>
<g>
</g>
<g>
</g>
<g>
</g>
<g>
</g>
<g>
</g>
<g>
</g>
<g>
</g>
<g>
</g>
<g>
</g>
</svg>
