<?xml version="1.0" encoding="iso-8859-1"?>
<!-- Generator: Adobe Illustrator 17.1.0, SVG Export Plug-In . SVG Version: 6.00 Build 0)  -->
<!DOCTYPE svg PUBLIC "-//W3C//DTD SVG 1.1//EN" "http://www.w3.org/Graphics/SVG/1.1/DTD/svg11.dtd">
<svg version="1.1" id="Capa_1" xmlns="http://www.w3.org/2000/svg" xmlns:xlink="http://www.w3.org/1999/xlink" x="0px" y="0px"
	 viewBox="0 0 286.398 286.398" style="enable-background:new 0 0 286.398 286.398;" xml:space="preserve">
<path d="M261.466,0.796c-7.849-2.657-16.36,1.559-19.013,9.407l-0.115,0.34c-6.92,20.427-18.557,39.355-33.654,54.759
	c-0.337,0.083-0.671,0.172-1.001,0.27l-27.586-0.069c-15.846-0.04-31.49-2.638-46.499-7.723c-7.846-2.656-16.362,1.547-19.02,9.395
	c-2.658,7.846,1.548,16.361,9.395,19.02c18.091,6.129,36.948,9.261,56.048,9.309l12.223,0.031l3.024,35.313
	c-29.323-4.359-59.118-0.989-86.939,9.942c-4.148,1.629-7.147,4.907-8.575,8.783l-28.419-33.173
	c-6.34,5.431-7.077,14.974-1.645,21.315l118.116,137.876c5.432,6.34,14.974,7.077,21.315,1.645l-33.461-39.059
	c3.565-1.694,6.464-4.776,7.805-8.818l12.039-36.295c3.89-11.728,12.665-21.158,24.079-25.887c0.457-0.011,0.913-0.019,1.375-0.059
	c12.381-1.061,21.559-11.957,20.498-24.338l-4.93-57.56c-0.142-1.66-0.466-3.26-0.941-4.788
	c15.575-17.456,27.669-38.128,35.171-60.273l0.118-0.35C273.526,11.961,269.314,3.448,261.466,0.796z M167.028,183.618
	l-10.637,32.067l-39.611-46.238c0.846-0.172,1.688-0.41,2.519-0.737c19.689-7.737,40.582-10.871,61.396-9.32
	C174.691,166.429,170.012,174.623,167.028,183.618z M170.133,26.123c4.003-11.818,16.829-18.152,28.646-14.148
	c11.817,4.003,18.152,16.829,14.148,28.646s-16.829,18.152-28.647,14.148C172.464,50.766,166.13,37.941,170.133,26.123z
	 M129.454,277.519c0.083,0.447,0.128,0.908,0.128,1.379c0,4.143-3.355,7.5-7.498,7.5c-0.006,0-0.014,0-0.02,0h-99
	c-4.135,0-7.782-3.347-7.792-7.481c-0.002-0.973-0.542-97.246-0.542-99.232c0-0.012,0-0.024,0-0.036c0-0.024,0-0.25,0-0.25h0.459
	h0.061c0.04-4,3.414-7.37,7.531-7.37c0.283,0,0.578,0.104,0.853,0.134c5.855,0.189,41.261,2.71,70.869,35.592
	C123.904,240.401,128.827,272.286,129.454,277.519z"/>
<g>
</g>
<g>
</g>
<g>
</g>
<g>
</g>
<g>
</g>
<g>
</g>
<g>
</g>
<g>
</g>
<g>
</g>
<g>
</g>
<g>
</g>
<g>
</g>
<g>
</g>
<g>
</g>
<g>
</g>
</svg>
