<?xml version="1.0" encoding="iso-8859-1"?>
<!-- Generator: Adobe Illustrator 17.1.0, SVG Export Plug-In . SVG Version: 6.00 Build 0)  -->
<!DOCTYPE svg PUBLIC "-//W3C//DTD SVG 1.1//EN" "http://www.w3.org/Graphics/SVG/1.1/DTD/svg11.dtd">
<svg version="1.1" id="Capa_1" xmlns="http://www.w3.org/2000/svg" xmlns:xlink="http://www.w3.org/1999/xlink" x="0px" y="0px"
	 viewBox="0 0 311.783 311.783" style="enable-background:new 0 0 311.783 311.783;" xml:space="preserve">
<path d="M272.169,179.173c0,12.427-10.073,22.532-22.5,22.532h-47.002c1.002,25-5.878,49.753-20.212,71.183l-2.555,3.788
	c-2.893,4.324-7.644,6.663-12.482,6.663c-0.474,0-0.949-0.031-1.424-0.076l-7.425,9.222c-1.481,1.841-3.654,2.797-5.847,2.797
	c-1.65,0-3.313-0.542-4.698-1.658c-3.227-2.598-3.736-7.319-1.139-10.545l6.894-8.562c-2.06-4.564-1.805-10.05,1.183-14.518
	l2.556-3.821c11.082-16.567,16.22-35.831,15.067-55.14c-21.965,16.61-47.292,28.991-73.877,36.028
	c-1.285,0.34-2.577,0.503-3.848,0.503c-2.767,0-5.43-0.781-7.729-2.167l-13.257,4.419c-0.787,0.262-1.587,0.387-2.373,0.387
	c-3.141,0-6.066-1.987-7.114-5.13c-1.31-3.93,0.813-8.178,4.743-9.487l10.751-3.583c0.238-6.424,4.615-12.212,11.152-13.943
	c25.881-6.851,50.381-19.593,70.851-36.848l8.586-7.237c1.762-2.289,4.204-4.095,7.152-5.074c0.651-0.217,1.307-0.369,1.963-0.494
	c1.826-0.773,3.778-1.305,5.814-1.572l-18.74-8.994c-7.469-3.584-10.617-12.545-7.033-20.014
	c3.585-7.468,12.545-10.616,20.014-7.033l76.961,36.934C265.633,160.655,272.169,169.165,272.169,179.173z M287.518,117.502
	c-13.401,0-24.265,10.864-24.265,24.265s10.864,24.265,24.265,24.265s24.265-10.864,24.265-24.265S300.919,117.502,287.518,117.502z
	 M93.519,155.177l-2.556,3.821c-2.989,4.468-3.244,9.954-1.183,14.518l-6.894,8.562c-2.598,3.226-2.088,7.947,1.139,10.545
	c1.386,1.116,3.048,1.658,4.698,1.658c2.192,0,4.365-0.956,5.847-2.797l7.425-9.222c0.474,0.045,0.949,0.076,1.424,0.076
	c4.839,0,9.59-2.339,12.482-6.663l2.555-3.788c14.334-21.43,21.214-46.183,20.212-71.183h47.002c12.427,0,22.5-10.105,22.5-22.532
	c0-10.008-6.536-18.501-15.57-21.424l-76.961-36.942c-7.468-3.585-16.429-0.439-20.014,7.029
	c-3.584,7.469-0.436,16.428,7.033,20.012l18.74,8.993c-2.036,0.267-3.988,0.799-5.815,1.572c-0.656,0.124-1.311,0.276-1.962,0.493
	c-2.948,0.979-5.39,2.785-7.152,5.074l-8.586,7.237c-20.47,17.255-44.97,29.997-70.851,36.848
	c-6.537,1.73-10.914,7.519-11.152,13.943L5.13,124.59c-3.929,1.31-6.053,5.558-4.743,9.487c1.048,3.143,3.974,5.13,7.114,5.13
	c0.786,0,1.586-0.125,2.373-0.387l13.257-4.419c2.3,1.386,4.962,2.167,7.729,2.167c1.271,0,2.563-0.163,3.848-0.503
	c26.585-7.037,51.913-19.418,73.877-36.028C109.738,119.346,104.6,138.61,93.519,155.177z M223.518,65.033
	c13.401,0,24.265-10.864,24.265-24.265s-10.864-24.265-24.265-24.265s-24.265,10.864-24.265,24.265S210.117,65.033,223.518,65.033z"
	/>
<g>
</g>
<g>
</g>
<g>
</g>
<g>
</g>
<g>
</g>
<g>
</g>
<g>
</g>
<g>
</g>
<g>
</g>
<g>
</g>
<g>
</g>
<g>
</g>
<g>
</g>
<g>
</g>
<g>
</g>
</svg>
