<?xml version="1.0" encoding="iso-8859-1"?>
<!-- Generator: Adobe Illustrator 17.1.0, SVG Export Plug-In . SVG Version: 6.00 Build 0)  -->
<!DOCTYPE svg PUBLIC "-//W3C//DTD SVG 1.1//EN" "http://www.w3.org/Graphics/SVG/1.1/DTD/svg11.dtd">
<svg version="1.1" id="Capa_1" xmlns="http://www.w3.org/2000/svg" xmlns:xlink="http://www.w3.org/1999/xlink" x="0px" y="0px"
	 viewBox="0 0 288.437 288.437" style="enable-background:new 0 0 288.437 288.437;" xml:space="preserve">
<path d="M207.432,183.176c-0.263,0.522-0.547,1.028-0.844,1.52c-1.548,4.732-5.401,8.595-10.585,9.902l-36.912,9.298l24.539,16.36
	c6.894,4.595,8.756,13.908,4.16,20.801c-2.89,4.336-7.647,6.681-12.494,6.682c-2.859,0-5.749-0.816-8.307-2.521l-29.815-19.877
	c-9.076-6.051-13.564-16.487-11.712-27.238c1.786-10.372,9.046-18.478,19.054-21.43l-37.015-18.649
	c-7.048-3.551-11.414-10.304-12.234-17.603c-30.193-22.646-56.1-50.032-77.151-81.609l-0.24-0.359
	c-4.6-6.89-2.742-16.204,4.147-20.804c6.889-4.598,16.203-2.743,20.804,4.147l0.245,0.367
	c14.884,22.325,32.438,42.339,52.407,59.826c-5.526-17.113-9.108-34.759-10.204-52.409c-0.423-6.797-0.803-13.691-0.803-20.493V15
	c0-8.284,6.716-15,15-15s15,6.716,15,15v14.086c0,6.184,0.361,12.453,0.745,18.634c1.583,25.483,8.859,51.013,20.956,74.401
	l61.249,30.837C208.518,158.549,213.023,172.078,207.432,183.176z M246.745,128.929c-14.548,0-26.342,11.793-26.342,26.342
	s11.794,26.342,26.342,26.342c14.548,0,26.342-11.794,26.342-26.342S261.293,128.929,246.745,128.929z M31.352,179.911l-0.59,0.883
	c-2.531,3.788-1.512,8.912,2.276,11.443l139.804,93.417c7.577,5.063,17.823,3.025,22.886-4.552l0.59-0.883L42.795,177.635
	C39.007,175.104,33.884,176.123,31.352,179.911z"/>
<g>
</g>
<g>
</g>
<g>
</g>
<g>
</g>
<g>
</g>
<g>
</g>
<g>
</g>
<g>
</g>
<g>
</g>
<g>
</g>
<g>
</g>
<g>
</g>
<g>
</g>
<g>
</g>
<g>
</g>
</svg>
