<?xml version="1.0" encoding="iso-8859-1"?>
<!-- Generator: Adobe Illustrator 17.1.0, SVG Export Plug-In . SVG Version: 6.00 Build 0)  -->
<!DOCTYPE svg PUBLIC "-//W3C//DTD SVG 1.1//EN" "http://www.w3.org/Graphics/SVG/1.1/DTD/svg11.dtd">
<svg version="1.1" id="Capa_1" xmlns="http://www.w3.org/2000/svg" xmlns:xlink="http://www.w3.org/1999/xlink" x="0px" y="0px"
	 viewBox="0 0 297.758 297.758" style="enable-background:new 0 0 297.758 297.758;" xml:space="preserve">
<g>
	<path d="M268.793,135.132c-20.908,37.874-59.029,63.598-101.976,68.812l-1.522,0.185c-22.496,22.701-38.327,51.01-45.839,82.144
		c-1.657,6.87-7.8,11.485-14.568,11.485c-1.166,0-2.349-0.137-3.531-0.423c-8.053-1.942-13.006-10.046-11.063-18.1
		c9.104-37.733,28.62-71.94,56.448-98.98c-0.82-1.593-1.472-3.303-1.903-5.125l-12.357-52.193c-0.25-1.056-0.417-2.112-0.513-3.162
		C108.072,113,86.331,99.636,69.493,81.129c-5.575-6.128-5.128-15.614,1-21.189c6.127-5.574,15.614-5.127,21.189,1
		c16.196,17.801,38.237,29.472,62.065,32.861c0.184,0.026,0.36,0.073,0.541,0.105l0.841-0.31
		c22.145-10.865,40.325-27.902,52.61-49.308c4.124-7.186,13.294-9.665,20.476-5.544c7.186,4.123,9.668,13.291,5.544,20.476
		c-13.63,23.751-33.106,43.164-56.704,56.67l11.572,48.874c0.221,0.935,0.374,1.869,0.474,2.8
		c22.459-8.89,41.529-25.376,53.428-46.93c4.004-7.253,13.129-9.887,20.381-5.883C270.163,118.755,272.797,127.88,268.793,135.132z
		 M76.18,24.543C76.18,11.01,65.17,0,51.637,0S27.094,11.01,27.094,24.543s11.01,24.543,24.543,24.543S76.18,38.076,76.18,24.543z
		 M163.131,79.13c12.928-8.035,16.895-25.029,8.86-37.958c-8.035-12.928-25.029-16.895-37.958-8.86
		c-12.928,8.035-16.895,25.029-8.86,37.958C133.208,83.198,150.202,87.165,163.131,79.13z"/>
</g>
<g>
</g>
<g>
</g>
<g>
</g>
<g>
</g>
<g>
</g>
<g>
</g>
<g>
</g>
<g>
</g>
<g>
</g>
<g>
</g>
<g>
</g>
<g>
</g>
<g>
</g>
<g>
</g>
<g>
</g>
</svg>
