<?xml version="1.0" encoding="iso-8859-1"?>
<!-- Generator: Adobe Illustrator 17.1.0, SVG Export Plug-In . SVG Version: 6.00 Build 0)  -->
<!DOCTYPE svg PUBLIC "-//W3C//DTD SVG 1.1//EN" "http://www.w3.org/Graphics/SVG/1.1/DTD/svg11.dtd">
<svg version="1.1" id="Capa_1" xmlns="http://www.w3.org/2000/svg" xmlns:xlink="http://www.w3.org/1999/xlink" x="0px" y="0px"
	 viewBox="0 0 284.981 284.981" style="enable-background:new 0 0 284.981 284.981;" xml:space="preserve">
<path d="M273.079,245.369c2.551,3.264,1.974,7.977-1.29,10.528c-1.52,1.187-37.832,29.083-92.538,29.083
	c-30.661,0-49.99-8.761-67.045-16.491c-13.023-5.903-24.271-11.001-38.459-11.001c-31.768,0-48.012,12.064-48.172,12.186
	c-3.264,2.553-7.957,1.959-10.508-1.305c-2.551-3.263-1.954-7.992,1.31-10.543c0.801-0.627,20.048-15.338,57.37-15.338
	c17.428,0,30.651,5.993,44.651,12.339c16.437,7.45,33.433,15.153,60.853,15.153c49.594,0,82.969-25.642,83.3-25.901
	C265.815,241.531,270.529,242.106,273.079,245.369z M11.27,202.436l19.788-45.759c3.422-7.913,12.527-11.599,20.474-8.376
	l8.744-20.219c-0.418-1.515-0.614-3.117-0.527-4.772c0.286-5.465,3.47-10.072,7.978-12.459l36.059-83.386
	C96.92,22.867,95.06,13.58,99.639,6.695c4.588-6.898,13.898-8.77,20.797-4.184l19.175,12.752
	c20.891,13.892,33.277,37.165,33.133,62.256l-0.026,4.574c1.619,1.465,3.052,3.192,4.228,5.165l41.237,69.146
	c5.451,9.141,3.667,20.579-3.661,27.675c1.418,13.619,7.209,26.386,16.68,36.488c0.423,0.451,0.802,0.927,1.159,1.414h21.482
	c0,0-0.536,0.426-1.533,1.16c6.514-3.696,10.133-6.469,10.24-6.553c3.264-2.549,7.978-1.974,10.528,1.29s1.974,7.977-1.29,10.528
	c-1.52,1.188-37.832,29.083-92.538,29.083c-30.661,0-49.99-8.761-67.045-16.491c-13.023-5.903-24.271-11.001-38.459-11.001
	c-31.768,0-48.012,12.064-48.172,12.186c-3.264,2.553-7.957,1.959-10.508-1.305c-2.551-3.263-1.954-7.992,1.31-10.543
	c0.377-0.295,4.834-3.704,13.329-7.233l-12.368-5.348C11.433,215.199,8.716,208.341,11.27,202.436z M73.747,214.996
	c10.481,0,19.438,2.175,27.961,5.283c0.228-1.524,0.688-3.039,1.414-4.492l8.279-16.558c10.885-21.771,30.872-37.54,53.91-43.625
	l-18.754-31.446c-15.815,10.257-34.555,15.789-53.392,15.789c-1.672,0-3.343-0.043-5.015-0.131l-14.208-0.744
	c-0.509-0.027-1.01-0.08-1.503-0.155l-6.712,15.522c7.792,3.583,11.342,12.742,7.92,20.655l-17.773,41.1
	C61.286,215.451,67.235,214.996,73.747,214.996z M195.494,221.981c-6.16-11.284-9.907-23.758-10.982-36.719
	c-0.828-0.685-1.614-1.433-2.347-2.246c-18.601,1.521-35.506,12.781-43.93,29.631l-4.668,9.334H195.494z M122.998,40.243
	l-6.126-4.074l-31.761,73.447l4.608,0.241c11.026,0.575,22.114-1.612,32.104-6.225c-6.395-4.131-10.632-11.317-10.632-19.497
	c0-12.814,10.388-23.201,23.201-23.201c1.917,0,3.778,0.237,5.56,0.675C136.748,53.006,130.899,45.497,122.998,40.243z"/>
<g>
</g>
<g>
</g>
<g>
</g>
<g>
</g>
<g>
</g>
<g>
</g>
<g>
</g>
<g>
</g>
<g>
</g>
<g>
</g>
<g>
</g>
<g>
</g>
<g>
</g>
<g>
</g>
<g>
</g>
</svg>
