<?xml version="1.0" encoding="iso-8859-1"?>
<!-- Generator: Adobe Illustrator 17.1.0, SVG Export Plug-In . SVG Version: 6.00 Build 0)  -->
<!DOCTYPE svg PUBLIC "-//W3C//DTD SVG 1.1//EN" "http://www.w3.org/Graphics/SVG/1.1/DTD/svg11.dtd">
<svg version="1.1" id="Capa_1" xmlns="http://www.w3.org/2000/svg" xmlns:xlink="http://www.w3.org/1999/xlink" x="0px" y="0px"
	 viewBox="0 0 278.497 278.497" style="enable-background:new 0 0 278.497 278.497;" xml:space="preserve">
<g>
	<g>
		<path d="M12.444,191.138c0.167-0.146,17.098-14.64,51.521-14.64c15.123,0,27.152,6.114,41.081,13.194
			c18.265,9.283,38.967,19.806,71.848,19.806c58.612,0,97.427-33.437,99.051-34.86c3.11-2.728,3.421-7.454,0.699-10.569
			c-2.723-3.116-7.457-3.435-10.578-0.719c-0.357,0.312-36.395,31.148-89.172,31.148c-2.904,0-5.687-0.1-8.381-0.274l0.293-69.457
			c18.271,5.471,34.889,15.7,48.067,29.852c2.955,3.173,6.962,4.777,10.98,4.777c3.66,0,7.33-1.332,10.22-4.022
			c6.063-5.646,6.4-15.137,0.755-21.2c-19.514-20.955-44.921-35.208-72.692-41.027c7.065-6.621,10.557-16.691,8.308-26.829
			c-3.389-15.277-18.521-24.914-33.799-21.525s-24.914,18.521-21.525,33.799c1.192,5.373,3.841,10.043,7.433,13.7
			c-18.997,1.79-37.329-6.389-48.678-21.511C79.237,67.714,80,64.322,80,60.749c0-13.669-11.081-24.75-24.75-24.75
			S30.5,47.08,30.5,60.749c0,12.333,9.022,22.556,20.826,24.437c15.808,23.516,42.028,37.355,70.024,37.355
			c0.819,0,1.643-0.035,2.465-0.059c0,0-0.179,58.383,0.095,59.803c-4.132-1.931-8.116-3.955-12.068-5.963
			c-14.996-7.622-29.161-14.822-47.878-14.822c-40.006,0-60.554,17.61-61.409,18.36c-3.114,2.73-3.426,7.469-0.695,10.584
			C4.59,193.558,9.329,193.87,12.444,191.138z"/>
	</g>
	<g>
		<path d="M266.065,196.35c-0.357,0.312-36.395,31.148-89.172,31.148c-29.288,0-47.469-9.241-65.051-18.178
			c-14.996-7.622-29.161-14.822-47.878-14.822c-40.006,0-60.554,17.61-61.409,18.36c-3.114,2.73-3.426,7.469-0.695,10.584
			c2.729,3.115,7.469,3.426,10.584,0.695c0.167-0.146,17.098-14.64,51.521-14.64c15.123,0,27.152,6.114,41.081,13.194
			c18.265,9.283,38.967,19.806,71.848,19.806c58.612,0,97.427-33.437,99.051-34.86c3.11-2.728,3.421-7.454,0.699-10.569
			C273.921,193.953,269.187,193.634,266.065,196.35z"/>
	</g>
</g>
<g>
</g>
<g>
</g>
<g>
</g>
<g>
</g>
<g>
</g>
<g>
</g>
<g>
</g>
<g>
</g>
<g>
</g>
<g>
</g>
<g>
</g>
<g>
</g>
<g>
</g>
<g>
</g>
<g>
</g>
</svg>
