<?xml version="1.0" encoding="iso-8859-1"?>
<!-- Generator: Adobe Illustrator 17.1.0, SVG Export Plug-In . SVG Version: 6.00 Build 0)  -->
<!DOCTYPE svg PUBLIC "-//W3C//DTD SVG 1.1//EN" "http://www.w3.org/Graphics/SVG/1.1/DTD/svg11.dtd">
<svg version="1.1" id="Capa_1" xmlns="http://www.w3.org/2000/svg" xmlns:xlink="http://www.w3.org/1999/xlink" x="0px" y="0px"
	 viewBox="0 0 260.731 260.731" style="enable-background:new 0 0 260.731 260.731;" xml:space="preserve">
<path d="M259.849,208.631c-0.639,4.479-3.264,8.43-7.145,10.754c-2.357,1.411-5.024,2.131-7.707,2.131
	c-1.735,0-3.478-0.301-5.146-0.911L28.335,143.323c-7.781-2.843-11.784-11.455-8.941-19.236c2.843-7.782,11.46-11.783,19.236-8.941
	l191.008,69.788c-3.892-19.834-17.89-36.978-37.632-44.172L28.559,83.974c-7.825-2.719-11.965-11.267-9.246-19.092
	c2.719-7.826,11.268-11.964,19.092-9.246l163.545,56.822c0.063,0.021,0.127,0.044,0.189,0.067
	c19.132,6.936,35.438,20.363,45.914,37.81C258.529,167.78,262.719,188.484,259.849,208.631z M104.637,66.062
	c1.497,0,3.008-0.137,4.489-0.406c6.55-1.194,12.242-4.867,16.029-10.343c3.787-5.476,5.216-12.099,4.022-18.647
	c-2.161-11.854-12.465-20.459-24.501-20.459c-1.497,0-3.008,0.137-4.489,0.406c-6.55,1.194-12.243,4.867-16.03,10.343
	s-5.215,12.099-4.021,18.647C82.298,57.457,92.601,66.062,104.637,66.062z M168.687,87.664c1.497,0,3.008-0.137,4.489-0.406
	c13.521-2.465,22.516-15.47,20.052-28.99c-2.161-11.854-12.465-20.458-24.501-20.458c-1.497,0-3.008,0.137-4.489,0.406
	c-6.55,1.194-12.243,4.867-16.03,10.343c-3.787,5.475-5.215,12.098-4.021,18.646C146.346,79.061,156.65,87.664,168.687,87.664z
	 M153.693,208.995l-0.423,1.111c-1.623,4.258,0.513,9.025,4.771,10.647l59.516,22.685c8.515,3.246,18.049-1.026,21.295-9.542
	l0.423-1.111l-74.934-28.561C160.082,202.602,155.315,204.738,153.693,208.995z M0.967,152.065l-0.423,1.111
	c-1.623,4.258,0.513,9.024,4.771,10.647l59.516,22.685c8.515,3.246,18.049-1.026,21.295-9.541l0.423-1.111l-74.934-28.561
	C7.356,145.671,2.589,147.807,0.967,152.065z"/>
<g>
</g>
<g>
</g>
<g>
</g>
<g>
</g>
<g>
</g>
<g>
</g>
<g>
</g>
<g>
</g>
<g>
</g>
<g>
</g>
<g>
</g>
<g>
</g>
<g>
</g>
<g>
</g>
<g>
</g>
</svg>
