<?xml version="1.0" encoding="iso-8859-1"?>
<!-- Generator: Adobe Illustrator 17.1.0, SVG Export Plug-In . SVG Version: 6.00 Build 0)  -->
<!DOCTYPE svg PUBLIC "-//W3C//DTD SVG 1.1//EN" "http://www.w3.org/Graphics/SVG/1.1/DTD/svg11.dtd">
<svg version="1.1" id="Capa_1" xmlns="http://www.w3.org/2000/svg" xmlns:xlink="http://www.w3.org/1999/xlink" x="0px" y="0px"
	 viewBox="0 0 285.876 285.876" style="enable-background:new 0 0 285.876 285.876;" xml:space="preserve">
<g>
	<path d="M261.207,76.226c-8.573,9.43-20.236,13.134-27.668,9.293c0.605,6.751-3.436,13.287-10.141,15.544
		c-18.231,6.139-37.408,9.21-56.583,9.21c-10.257,0-20.512-0.885-30.624-2.643c15.289,20.576,39.358,32.753,65.156,32.753
		c8.284,0,15,6.716,15,15s-6.716,15-15,15c-32.82,0-63.598-14.394-84.591-39.029l-26.497,44.097
		c30.164,25.599,53.935,55.258,70.763,88.411c3.749,7.387,0.801,16.415-6.587,20.165c-2.176,1.104-4.494,1.627-6.777,1.627
		c-5.47,0-10.742-3.002-13.388-8.214c-14.607-28.78-35.188-54.695-61.282-77.281c-3.667,27.708-13.553,54.145-29.537,78.86
		c-2.871,4.438-7.69,6.855-12.609,6.855c-2.792,0-5.614-0.778-8.132-2.406c-6.957-4.499-8.935-13.785-4.436-20.741
		c17.485-27.035,26.365-56.402,26.365-87.284v-3.058c0-4.645,0.568-9.303,3.111-13.535L92.94,83.63
		c6.162-13.495,19.867-12.797,26.78-11.028l0.941,0.311c30.074,9.922,63.158,9.825,93.164-0.28
		c4.559-1.533,9.328-0.743,13.052,1.715c-0.392-6.599,2.662-14.617,8.781-21.348c9.621-10.583,23.14-13.963,30.195-7.549
		C272.908,51.864,270.828,65.643,261.207,76.226z M244.508,138.119c-4.768,0-8.632,3.865-8.632,8.632s3.865,8.632,8.632,8.632
		c4.768,0,8.632-3.865,8.632-8.632S249.276,138.119,244.508,138.119z M121.3,62.781c17.337,0,31.391-14.054,31.391-31.391
		S138.636,0,121.3,0c-17.337,0-31.391,14.054-31.391,31.391S103.963,62.781,121.3,62.781z"/>
</g>
<g>
</g>
<g>
</g>
<g>
</g>
<g>
</g>
<g>
</g>
<g>
</g>
<g>
</g>
<g>
</g>
<g>
</g>
<g>
</g>
<g>
</g>
<g>
</g>
<g>
</g>
<g>
</g>
<g>
</g>
</svg>
