<?xml version="1.0" encoding="iso-8859-1"?>
<!-- Generator: Adobe Illustrator 17.1.0, SVG Export Plug-In . SVG Version: 6.00 Build 0)  -->
<!DOCTYPE svg PUBLIC "-//W3C//DTD SVG 1.1//EN" "http://www.w3.org/Graphics/SVG/1.1/DTD/svg11.dtd">
<svg version="1.1" id="Capa_1" xmlns="http://www.w3.org/2000/svg" xmlns:xlink="http://www.w3.org/1999/xlink" x="0px" y="0px"
	 viewBox="0 0 282.501 282.501" style="enable-background:new 0 0 282.501 282.501;" xml:space="preserve">
<g>
	<path d="M273.95,88.54c-19.262,9.177-40.29,13.849-61.399,13.849c-10.583,0-21.182-1.188-31.594-3.558l-32.515,59.527
		c-0.513,0.939-1.084,1.757-1.705,2.592c13.406,34.66,17.631,68.272,12.905,102.272h11.594c4.197,0,7.599,3.303,7.599,7.5
		s-3.402,7.5-7.599,7.5h-24.291c-0.816,0-1.649,0.387-2.496,0.387c-0.752,0-1.513-0.141-2.278-0.257
		c-0.074-0.011-0.145-0.129-0.219-0.129h-16c-4.197,0-7.599-3.304-7.599-7.5s3.402-7.5,7.599-7.5h3.495
		c0.018,0,0.06-1.156,0.155-1.777c4.56-29.926,0.898-59.607-11.191-90.518c-43.283-1.246-72.724-16.604-97.529-50.616l-8.215,7.359
		c-3.127,2.798-7.931,2.536-10.729-0.592l0,0c-2.798-3.127-2.531-7.929,0.596-10.727L36.28,86.158
		c3.127-2.798,7.931-2.531,10.729,0.597c2.798,3.127,2.531,7.931-0.596,10.73l-3.281,2.936c0.708,0.654,1.367,1.383,1.956,2.192
		c16.866,23.143,35.222,34.489,62.36,37.561c0.402-1.15,0.898-2.283,1.501-3.387l32.647-59.77L92.625,29.677
		c-5.956-5.758-6.117-15.254-0.359-21.211c5.759-5.956,15.253-6.116,21.211-0.359l53.346,51.568
		c4.821,4.661,10.847,7.818,17.422,9.129l0.078,0.016c0.268,0.052,0.533,0.111,0.798,0.178c25.357,6.385,52.321,3.707,75.926-7.541
		c7.48-3.562,16.43-0.389,19.994,7.09C284.602,76.025,281.428,84.977,273.95,88.54z M193.417,60.223
		c13.669,0,24.75-11.081,24.75-24.75s-11.081-24.75-24.75-24.75s-24.75,11.081-24.75,24.75S179.748,60.223,193.417,60.223z"/>
</g>
<g>
</g>
<g>
</g>
<g>
</g>
<g>
</g>
<g>
</g>
<g>
</g>
<g>
</g>
<g>
</g>
<g>
</g>
<g>
</g>
<g>
</g>
<g>
</g>
<g>
</g>
<g>
</g>
<g>
</g>
</svg>
