<?xml version="1.0" encoding="iso-8859-1"?>
<!-- Generator: Adobe Illustrator 17.1.0, SVG Export Plug-In . SVG Version: 6.00 Build 0)  -->
<!DOCTYPE svg PUBLIC "-//W3C//DTD SVG 1.1//EN" "http://www.w3.org/Graphics/SVG/1.1/DTD/svg11.dtd">
<svg version="1.1" id="Capa_1" xmlns="http://www.w3.org/2000/svg" xmlns:xlink="http://www.w3.org/1999/xlink" x="0px" y="0px"
	 viewBox="0 0 279.002 279.002" style="enable-background:new 0 0 279.002 279.002;" xml:space="preserve">
<path d="M273.345,145.995c-28.797-7.305-44.713-4.702-57.389,0.847c1.294-3.578,2.865-7.085,4.74-10.478l1.25-2.262
	c3.753-4.02,6.053-9.413,6.053-15.347c0-21.823-17.753-39.76-39.529-39.983l-41.019-0.505c-0.096-0.001-0.188-0.002-0.283-0.002
	c-9.607,0-17.84,6.039-21.054,14.562c-1.014,1.624-1.736,3.467-2.07,5.473l-1.533,9.201c-2.841,17.045-9.11,33.029-18.391,47.229
	c-3.657-2.515-7.098-5.358-10.287-8.568c-3.361-3.383-6.347-7.034-9.002-10.851H89.5c4.143,0,7.5-3.357,7.5-7.5
	c0-4.143-3.357-7.5-7.5-7.5H76.302c-0.922-1.995-1.775-3.998-2.568-6H82.5c4.143,0,7.5-3.357,7.5-7.5s-3.357-7.5-7.5-7.5H68.819
	c-0.542-2.041-1.03-4.046-1.465-6H76.5c4.143,0,7.5-3.357,7.5-7.5s-3.357-7.5-7.5-7.5H64.75c-1.124-8.91-1.126-14.81-1.125-14.981
	c0.031-3.627-2.538-6.757-6.103-7.433c-3.569-0.684-7.102,1.296-8.4,4.683c-0.095,0.248-9.711,25.071-24.776,42.835
	c-10.427,12.297-21.011,20.149-21.271,20.342c-3.344,2.444-4.073,7.135-1.63,10.479c2.443,3.344,7.135,4.073,10.48,1.631
	c0.431-0.315,9.508-6.996,19.664-18.008c1.462,2.644,4.396,4.453,7.785,4.453c4.846,0,8.775-3.694,8.775-8.25
	c0-3.923-2.915-7.199-6.817-8.037c3.788-5.205,7.158-10.59,10.036-15.667c3.643,19.797,12.107,46.486,31.76,66.309
	c3.749,3.781,7.771,7.138,12.03,10.118c-2.278,2.702-4.669,5.327-7.193,7.851l-1.569,1.569c-5.858,5.857-5.858,15.355,0,21.213
	c2.929,2.929,6.768,4.394,10.606,4.394s7.678-1.465,10.606-4.394l1.569-1.569c5.084-5.084,9.749-10.485,14.025-16.138
	c8.872,2.356,18.425,3.555,28.646,3.555c12.318,0,22.055-1.419,30.145-3.612c0.846,10.182,3.228,20.304,7.175,30.046l8.559,21.122
	c2.363,5.833,7.979,9.371,13.907,9.371c1.876,0,3.783-0.354,5.628-1.102c7.678-3.111,11.38-11.857,8.27-19.535l-8.559-21.122
	c-4.251-10.491-5.919-21.605-5.095-32.544c13.575-7.872,25.51-13.541,57.78-5.355c4.015,1.018,8.096-1.409,9.114-5.425
	S277.36,147.014,273.345,145.995z M132.225,166.384c8.022-13.317,13.974-27.798,17.653-43.085l33.67,0.415
	c0.863,3.833,2.709,7.291,5.252,10.108c-3.849,9.726-6.152,19.887-6.891,30.158c-7.738,2.566-17.226,4.285-30.062,4.285
	C144.93,168.265,138.393,167.623,132.225,166.384z M86.501,63.561c0-13.669,11.081-24.75,24.75-24.75s24.75,11.081,24.75,24.75
	c0,13.669-11.081,24.75-24.75,24.75S86.501,77.23,86.501,63.561z"/>
<g>
</g>
<g>
</g>
<g>
</g>
<g>
</g>
<g>
</g>
<g>
</g>
<g>
</g>
<g>
</g>
<g>
</g>
<g>
</g>
<g>
</g>
<g>
</g>
<g>
</g>
<g>
</g>
<g>
</g>
</svg>
