<?xml version="1.0" encoding="iso-8859-1"?>
<!-- Generator: Adobe Illustrator 17.1.0, SVG Export Plug-In . SVG Version: 6.00 Build 0)  -->
<!DOCTYPE svg PUBLIC "-//W3C//DTD SVG 1.1//EN" "http://www.w3.org/Graphics/SVG/1.1/DTD/svg11.dtd">
<svg version="1.1" id="Capa_1" xmlns="http://www.w3.org/2000/svg" xmlns:xlink="http://www.w3.org/1999/xlink" x="0px" y="0px"
	 viewBox="0 0 290.448 290.448" style="enable-background:new 0 0 290.448 290.448;" xml:space="preserve">
<path d="M228.504,109.966c0.931,2.468,1.444,5.122,1.444,7.916c0,12.427-10.073,22.46-22.5,22.46h-66.237
	c0.672,10,0.389,19.238-0.887,28.672c-2.585,19.11-9.235,37.328-19.295,54.328h11.187c4.389,0,7.784,3.534,7.784,7.922v-0.024
	c0,4.389-3.395,8.102-7.784,8.102h-28.538c-0.398,0-0.796,0.072-1.197,0.072c-0.462,0-0.924-0.072-1.385-0.072H84.857
	c-4.389,0-7.857-3.662-7.857-8.051v-0.105c0-4.389,3.468-7.845,7.857-7.845h2.681c0.162-3,0.971-5.199,2.495-7.477l3.046-4.646
	c14.531-21.724,20.699-47.247,17.954-72.556c-26.745,21.123-58.163,36.805-91.081,45.52c-1.283,0.339-2.952,0.502-3.952,0.503
	v15.255c0,4.389-3.611,7.947-8,7.947c-4.389,0-8-3.558-8-7.947v-47.359c0-4.389,3.611-7.947,8-7.947c4.389,0,8,3.558,8,7.947v1.526
	c30-8.47,57.973-23.383,81.612-43.309l8.459-7.107c1.101-1.347,2.398-2.567,3.779-3.628c1.553-1.482,3.459-2.675,5.632-3.397
	c0.933-0.31,1.885-0.536,2.825-0.658c1.69-0.406,3.463-0.666,5.278-0.666h14.568L102.943,79.7c-7.568-3.37-10.971-12.198-7.6-19.765
	c3.37-7.568,12.233-10.972,19.805-7.6l99.065,44.123c1.626,0.512,3.171,1.207,4.614,2.055l1.024,0.456
	C224.553,101.063,227.643,105.259,228.504,109.966z M261.832,55.103c-15.804,0-28.616,12.812-28.616,28.616
	c0,15.804,12.812,28.616,28.616,28.616s28.616-12.812,28.616-28.616C290.448,67.915,277.636,55.103,261.832,55.103z"/>
<g>
</g>
<g>
</g>
<g>
</g>
<g>
</g>
<g>
</g>
<g>
</g>
<g>
</g>
<g>
</g>
<g>
</g>
<g>
</g>
<g>
</g>
<g>
</g>
<g>
</g>
<g>
</g>
<g>
</g>
</svg>
