<?xml version="1.0" encoding="UTF-8"?>
<svg id="Calque_2" data-name="Calque 2" xmlns="http://www.w3.org/2000/svg" viewBox="0 0 25.72 34">
  <defs>
    <style>
      .cls-1 {
        fill: #fb2942;
      }

      .cls-2 {
        fill: #fff;
      }
    </style>
  </defs>
  <g id="Calque_1-2" data-name="Calque 1">
    <g>
      <path class="cls-2" d="M12.86,0C5.77,0,0,5.77,0,12.86c0,8.06,9.55,18.93,10.64,20.15,.57,.63,1.38,.99,2.22,.99s1.65-.36,2.22-.99c1.09-1.22,10.64-12.1,10.64-20.15C25.72,5.77,19.95,0,12.86,0Zm0,32c-.27,0-.53-.11-.73-.33-.41-.46-10.13-11.37-10.13-18.81C2,6.87,6.87,2,12.86,2s10.86,4.87,10.86,10.86c0,7.44-9.72,18.35-10.13,18.81-.2,.22-.46,.33-.73,.33Z"/>
      <path class="cls-1" d="M12.86,2C6.87,2,2,6.87,2,12.86c0,7.44,9.72,18.35,10.13,18.81,.2,.22,.46,.33,.73,.33s.53-.11,.73-.33c.41-.46,10.13-11.37,10.13-18.81,0-5.99-4.87-10.86-10.86-10.86Zm0,16.33c-3.01,0-5.47-2.46-5.47-5.47s2.46-5.47,5.47-5.47,5.47,2.46,5.47,5.47-2.46,5.47-5.47,5.47Z"/>
      <circle class="cls-2" cx="12.86" cy="12.86" r="5.47" transform="translate(-1.89 23.49) rotate(-80.78)"/>
    </g>
  </g>
</svg>