<?xml version="1.0" encoding="iso-8859-1"?>
<!-- Generator: Adobe Illustrator 17.1.0, SVG Export Plug-In . SVG Version: 6.00 Build 0)  -->
<!DOCTYPE svg PUBLIC "-//W3C//DTD SVG 1.1//EN" "http://www.w3.org/Graphics/SVG/1.1/DTD/svg11.dtd">
<svg version="1.1" id="Capa_1" xmlns="http://www.w3.org/2000/svg" xmlns:xlink="http://www.w3.org/1999/xlink" x="0px" y="0px"
	 viewBox="0 0 279.883 279.883" style="enable-background:new 0 0 279.883 279.883;" xml:space="preserve">
<g>
	<path d="M272.008,54.903H120.157c6.969-5.007,11.513-13.177,11.513-22.414c0-15.236-12.351-27.587-27.587-27.587
		S76.496,17.254,76.496,32.49c0,15.221,12.327,27.562,27.542,27.586c-2.469,2.703-4.01,6.256-4.13,10.176
		c-2.621-2.501-5.884-4.403-9.625-5.419c-11.985-3.252-24.353,3.824-27.61,15.817l-19.348,71.247
		c-0.197,0.725-0.978,4.106-1.021,4.353c-0.039,0.229-0.073,0.458-0.102,0.69c-0.033,0.267-0.058,0.534-0.077,0.801
		c-0.015,0.218-0.027,0.437-0.032,0.657c-0.007,0.285-0.004,0.568,0.005,0.852c0.004,0.128-0.005,0.253,0.002,0.381
		c1.813,32.398-10.603,63.837-34.063,86.254l-3.4,3.249c-5.99,5.724-6.206,15.219-0.483,21.208
		c2.947,3.085,6.894,4.638,10.848,4.638c3.725,0,7.455-1.379,10.36-4.154l3.4-3.25c22.805-21.791,37.386-50.291,41.957-80.911
		c26.759,20.705,48.054,47.664,61.98,78.662c2.498,5.561,7.966,8.856,13.691,8.856c2.055,0,4.143-0.425,6.139-1.321
		c7.557-3.395,10.93-12.273,7.535-19.83c-16.255-36.18-41.263-67.569-72.739-91.454l10.436-38.429
		c6.399,6.264,15.028,9.792,23.976,9.792c0.402,0,0.806-0.007,1.209-0.021c8.319-0.295,16.223-3.631,22.236-9.27l12.173,5.879
		c4.726,2.282,9.808,3.393,14.858,3.393c8.757,0,17.415-3.337,23.939-9.679l37.184-36.146c0.48-0.467,0.908-0.965,1.312-1.477
		c7.249-1.364,12.733-7.646,12.733-14.718h25.167c4.05,0,7.333-3.283,7.333-7.333v-0.792
		C279.883,58.429,276.358,54.903,272.008,54.903z M121.884,102.938c-0.709,0.027-2.071-0.109-3.222-1.297l-11.949-12.323
		c0.245-1.957,0.233-3.903-0.025-5.795c2.319,1.499,5.077,2.379,8.045,2.379h23.316l-13.044,15.514
		C123.942,102.682,122.593,102.914,121.884,102.938z M170.404,102.515l-5.068-2.448l7.192-8.554c1.423-1.693,2.394-3.61,2.953-5.61
		h16.046l-16.282,15.828C173.961,102.978,172.018,103.293,170.404,102.515z"/>
</g>
<g>
</g>
<g>
</g>
<g>
</g>
<g>
</g>
<g>
</g>
<g>
</g>
<g>
</g>
<g>
</g>
<g>
</g>
<g>
</g>
<g>
</g>
<g>
</g>
<g>
</g>
<g>
</g>
<g>
</g>
</svg>
