<?xml version="1.0" encoding="iso-8859-1"?>
<!-- Generator: Adobe Illustrator 17.1.0, SVG Export Plug-In . SVG Version: 6.00 Build 0)  -->
<!DOCTYPE svg PUBLIC "-//W3C//DTD SVG 1.1//EN" "http://www.w3.org/Graphics/SVG/1.1/DTD/svg11.dtd">
<svg version="1.1" id="Capa_1" xmlns="http://www.w3.org/2000/svg" xmlns:xlink="http://www.w3.org/1999/xlink" x="0px" y="0px"
	 viewBox="0 0 278.497 278.497" style="enable-background:new 0 0 278.497 278.497;" xml:space="preserve">
<g>
	<path d="M1.86,182.464c-2.73-3.115-2.419-7.854,0.695-10.584c0.855-0.75,21.403-18.36,61.409-18.36
		c9.958,0,18.622,2.048,26.813,5.104l13.065-23.417c-18.93,2.569-38.082,7.154-57.261,13.74l-2.208,0.759
		c-1.614,0.555-3.26,0.818-4.876,0.818c-6.229,0-12.047-3.909-14.185-10.129c-2.692-7.835,1.477-16.368,9.311-19.061
		c0,0,2.211-0.76,2.211-0.76c9.689-3.327,19.521-6.24,29.468-8.693c9.693-2.39,19.494-4.344,29.368-5.821
		c9.657-1.444,19.383-2.431,29.135-2.926c5.119-0.26,10.248-0.44,15.374-0.302c4.565,0.122,9.114,0.635,13.689,0.706
		c9.383,0.146,18.774-0.472,28.065-1.78c9.534-1.343,18.963-3.413,28.197-6.139c7.371-2.176,14.619-4.771,21.703-7.752
		c7.637-3.213,16.431,0.374,19.644,8.009c3.213,7.636-0.373,16.431-8.009,19.644c-28.296,11.905-58.005,18.038-86.925,18.038
		c-0.083,0-0.166-0.003-0.25-0.003l-24.634,44.152c12.376,5.047,26.54,8.813,45.233,8.813c52.777,0,88.814-30.837,89.172-31.148
		c3.12-2.716,7.855-2.396,10.578,0.719c2.722,3.115,2.411,7.842-0.699,10.569c-1.624,1.424-40.438,34.86-99.051,34.86
		c-32.881,0-53.583-10.522-71.848-19.806c-13.929-7.08-25.958-13.194-41.081-13.194c-34.423,0-51.354,14.493-51.521,14.64
		C9.329,185.89,4.591,185.579,1.86,182.464z M266.065,188.371c-0.357,0.312-36.395,31.148-89.172,31.148
		c-29.288,0-47.469-9.241-65.051-18.178c-14.996-7.622-29.161-14.822-47.878-14.822c-40.006,0-60.554,17.61-61.409,18.36
		c-3.114,2.73-3.426,7.469-0.695,10.584s7.469,3.426,10.584,0.695c0.167-0.146,17.098-14.64,51.521-14.64
		c15.123,0,27.152,6.114,41.081,13.194c18.265,9.283,38.967,19.806,71.848,19.806c58.612,0,97.427-33.437,99.051-34.86
		c3.11-2.728,3.421-7.454,0.699-10.569C273.921,185.974,269.186,185.655,266.065,188.371z M144.242,92.244
		c12.984,4.274,26.974-2.787,31.247-15.771c4.274-12.984-2.787-26.974-15.771-31.248c-12.984-4.274-26.974,2.787-31.247,15.771
		C124.197,73.98,131.258,87.97,144.242,92.244z"/>
</g>
<g>
</g>
<g>
</g>
<g>
</g>
<g>
</g>
<g>
</g>
<g>
</g>
<g>
</g>
<g>
</g>
<g>
</g>
<g>
</g>
<g>
</g>
<g>
</g>
<g>
</g>
<g>
</g>
<g>
</g>
</svg>
